<?xml version="1.0" encoding="utf-8"?>
<!-- Generator: Adobe Illustrator 27.2.0, SVG Export Plug-In . SVG Version: 6.00 Build 0)  -->
<svg version="1.1" id="图层_1" xmlns="http://www.w3.org/2000/svg" xmlns:xlink="http://www.w3.org/1999/xlink" x="0px" y="0px"
	 viewBox="0 0 300 229.7" style="enable-background:new 0 0 300 229.7;" xml:space="preserve">
<style type="text/css">
	.st0{fill:#6082C0;}
	.st1{fill:#993022;}
	.st2{fill:#ECB941;}
	.st3{fill:#074473;}
</style>
<path class="st0" d="M86.8,123.3v0.4l0.3,0.2v-0.4c0,0,0,0,0,0L86.8,123.3z"/>
<path class="st0" d="M86.8,123v0.4l0.3,0.2v-0.4c0,0,0,0,0,0L86.8,123z"/>
<path class="st1" d="M288.1,88.4l-23.9,0c10.5,7.9,16.5,16,17.7,24.3c1,6.6-1.1,13.3-6.1,19.8l-0.2,0.3
	c-9.2,11.7-27.8,20.5-35.5,23.7c-0.9,0.3-1.7,0.5-2.6,0.8h50.6c6.6,0,11.9-5.4,11.9-12v-44.9C300,93.8,294.7,88.4,288.1,88.4
	L288.1,88.4z"/>
<path class="st1" d="M225.5,88.4c-6.6,0-11.9,5.4-11.9,12v44.9c0,6.6,5.3,12,11.9,12h0.2l1.4-0.5c30.5-10.1,50.1-25.4,51.1-39.9
	c1-14.6-17.2-26.7-19.3-28l-0.6-0.4L225.5,88.4L225.5,88.4z"/>
<path class="st1" d="M278.1,116.9c-1,14.5-20.6,29.8-51.1,39.9l-1.4,0.5h-0.2c-6.6,0-11.9-5.4-11.9-12v-44.9c0-6.6,5.3-12,11.9-12
	h32.8l0.6,0.4C260.9,90.2,279.1,102.3,278.1,116.9L278.1,116.9z"/>
<path class="st1" d="M284.7,32.4c0.3-1.9,0.5-3.8,0.5-5.7c0-9.2-4-16.6-11.5-21.6c-10.1-6.7-24.6-6.9-34.5-0.5
	c-7.7,4.9-11.7,12.9-11.7,23c0,2.1,0.2,4.3,0.5,6.6c1.7,10.9,7.1,19.9,16.1,26.9c-4.6-1.2-10.5-1.8-13.1,2.4c-1.3,2.1-1,4.1,0.8,5.3
	c3.3,2.4,11.4,1.7,16.2-1l-3.3,7.8h22.4l-4.5-9c5.4,2.3,11.7,4.3,15.1,2.2c1.4-0.8,2.1-2.2,2.2-4.1c0.1-2.5-1-3.8-2-4.5
	c-1.7-1.2-4.5-1.5-8.3-0.9c0.4-0.3,0.8-0.6,1.1-1C275.9,54,282.4,45.8,284.7,32.4L284.7,32.4z M233.5,66.7c-0.3-0.2-0.7-0.5-0.1-1.6
	c1.9-3.2,8.4-1.9,13.7,0.1C243.1,67.9,235.6,68.2,233.5,66.7z M276.4,62.7c0.4,0.3,0.9,0.8,0.8,2.1c-0.1,0.9-0.3,1.5-0.9,1.8
	c-1.3,0.8-4.6,0.9-12.8-2.6C268.5,62.3,274.3,61.2,276.4,62.7z M259.9,62.3c-0.3,0.1-0.6,0.2-0.7,0.3l-1,0.3l-0.5,0.2l0,0l-1.6,0.7
	l2.5,1.1l4,7.9h-13.5l3.9-9.1l-1.4-0.8c-11.8-7-18.8-16.8-20.7-29c-0.3-2.1-0.5-4.2-0.5-6.2c0-9.2,3.6-16.3,10.4-20.7
	c9-5.8,22.2-5.6,31.4,0.5c6.7,4.4,10.3,11.1,10.3,19.3c0,1.7-0.2,3.4-0.5,5.2C278.3,53.4,263,61,259.9,62.3z"/>
<path class="st1" d="M263,87.9l-0.2-0.1c0,0,0,0-0.1-0.1c-0.8-0.5-6.8-4.2-8.1-12h-3c0.2,1.7,1.1,7.7,6.2,12
	c0.1,0.1,0.2,0.1,0.2,0.2h0.4l0.1,0.1l0.3,0.2l4.1,0l-0.4-0.3H263z"/>
<path class="st1" d="M258.5,87.9H258c0.1,0.1,0.2,0.2,0.4,0.3h0.5L258.5,87.9L258.5,87.9z"/>
<polygon class="st1" points="263.4,88.2 263,87.9 262.5,87.9 262.9,88.2 "/>
<path class="st2" d="M147.5,93.6l12.8,3.6l-11.4,4.7l9,2.5l-6.3,5.1v13.7h5.3l1.8-12.9l0.2-0.1c13.7-5.7,14.6-18.8,14.7-21.4v-0.5
	h-20.8l-0.4,0.5L147.5,93.6z"/>
<path class="st2" d="M140.1,102.5l11.1-4.6l-9.6-2.9l6.7-6.2l0.4-0.5h-22.1v0.5c0.2,2.8,0.6,16.4,14.3,21.5l0.3,0.1l0,0.3l1.6,12.5
	h5.8v-15.1l3.1-2.5L140.1,102.5z"/>
<rect x="148.7" y="36.8" class="st2" width="2.8" height="24.2"/>
<rect x="113.3" y="61.8" transform="matrix(0.4472 -0.8944 0.8944 0.4472 -1.7695 142.8405)" class="st2" width="2.8" height="22.1"/>
<rect x="120.8" y="49.7" transform="matrix(0.6641 -0.7476 0.7476 0.6641 -4.9871 112.0542)" class="st2" width="2.8" height="23.7"/>
<polygon class="st2" points="131.4,41.2 128.8,42.3 137.9,63.5 138.1,64 140.7,62.9 131.6,41.6 "/>
<rect x="174.5" y="71.4" transform="matrix(0.8944 -0.4472 0.4472 0.8944 -12.9883 90.6795)" class="st2" width="22.1" height="2.8"/>
<rect x="166.2" y="60.2" transform="matrix(0.7476 -0.6642 0.6642 0.7476 4.0333 133.7759)" class="st2" width="23.7" height="2.8"/>
<rect x="153.7" y="51.2" transform="matrix(0.3971 -0.9178 0.9178 0.3971 51.5026 183.5788)" class="st2" width="23.6" height="2.8"/>
<path class="st2" d="M193.4,145.5v-45c0-6.6-5.4-12-11.9-12h-4.3l0,0.5c-0.4,9.7-4.6,15.7-8.1,19c-3.4,3.2-6.7,4.6-7.4,4.8l-2,13.9
	h-19.5l-1.7-13.8c-14.7-5.6-15.2-21.1-15.4-24.1l0-0.3l-4.3,0c-6.6,0-11.9,5.4-11.9,12v45c0,6,4.5,11,10.2,11.8h66.2
	C189,156.4,193.4,151.5,193.4,145.5L193.4,145.5z M140.4,129.8h19.4v2.9h-19.4V129.8z M140.4,135.3h19.4v2.9h-19.4V135.3z
	 M153.8,149.1h-7.6v-2.9h7.6V149.1z M159.9,143.7h-19.4v-2.9h19.4V143.7z"/>
<path class="st0" d="M21.2,145.7c-5.5-2.3-8.4-5-8.6-8.1c-0.2-4.8,6.2-8.7,8.5-10c-1.3-2.8-1.4-5.3-0.5-7.6c1.7-4.2,6.4-5.9,6.6-6
	c2.4-1.1,4.6-1.6,6.7-1.6c1.4,0,2.8,0.3,4.1,0.8c3.5,1.4,5.4,4.4,6.1,5.9c2.3-1.5,4.4-2.3,6.3-2.3c0.7,0,1.4,0.1,2,0.3
	c2.1,0.7,3.3,2.3,3.9,3.4c3.4-3,7.3-4.5,11.8-4.5c8.4,0,16.3,5.3,18.5,6.9l0.1,0v-22.5c0-6.6-5.4-11.9-11.9-11.9H11.9
	C5.4,88.4,0,93.8,0,100.4v44.9c0,6.6,5.4,11.9,11.9,11.9h7l0-0.1C17.3,152.7,20,147.5,21.2,145.7L21.2,145.7z"/>
<path class="st0" d="M49.9,168.3c-4.1,0-7.4,2.7-7.4,6.1s3.3,6.1,7.4,6.1s7.4-2.7,7.4-6.1S54,168.3,49.9,168.3z M49.9,178.2
	c-2.8,0-5-1.7-5-3.8c0-2.1,2.3-3.8,5-3.8c2.8,0,5,1.7,5,3.8C55,176.5,52.7,178.2,49.9,178.2z"/>
<path class="st0" d="M34.5,174.5c-3.3,0.3-5.7,2.9-5.4,5.8c0.3,2.8,3,4.5,6.5,4.2c3.5-0.4,5.8-2.6,5.5-5.4
	C40.7,176.2,37.8,174.2,34.5,174.5L34.5,174.5z M35.3,182.3c-1.8,0.2-3.9-0.4-4.1-2.3c-0.2-1.7,1.4-3.2,3.5-3.5
	c2.1-0.2,3.9,1,4.1,2.7C39,181.1,37.1,182.1,35.3,182.3z"/>
<path class="st0" d="M86.5,127l-0.3-0.2c-6.4-5.1-12.4-7.7-17.8-7.7c-1,0-1.9,0.1-2.8,0.3c-6.6,1.2-9.8,6.5-9.9,6.6l-1.1,1.8
	l-0.3-2.1c-0.8-5.4-3.5-5.7-3.6-5.7c-0.2,0-0.4-0.1-0.6-0.1c-2.9,0-6.8,3.9-6.9,3.9l-0.9,0.9l-0.3-1.3c-2.1-7.7-7.3-7.8-7.5-7.8
	c-7,0.6-9.8,3.8-9.8,3.8c-3.5,4,0.2,8.2,0.7,8.6l0.7,0.8l-1,0.4c-9.9,4.3-9.3,7.9-9.3,8c0.3,2.6,6.1,5.2,9.6,6.3l1,0.3l-0.6,0.9
	c-5.7,7.7-4,11.5-3.6,12.2l0.1,0.3h52.1c6.6,0,11.9-5.4,11.9-12l-0.1-0.6l-0.3-0.2l0.3-0.3L86.5,127z"/>
<path class="st0" d="M87.4,123.7c-0.1,0-0.1-0.1-0.2-0.1v0.4l-0.3-0.2v3.1c0.1,0.1,0.3,0.2,0.5,0.3c1.4,1,4.5,3.6,4.9,7.3
	c0.3,3-1.3,6.2-4.9,9.3c0,0-0.1,0.1-0.1,0.1l-0.3,0.3l-0.2,0.2l0.2,0.1l0.5,0.2l0,0c0.1,0,5.2,2.2,2.7,9.7c0,0.1-3.5,11.7-17.8,11.7
	h-0.1c-0.1,0-8.8,0.5-20.3-6.1l-0.3-0.2l-0.3,0.3c-0.1,0.1-5.6,5.8-12,5.7c-0.1,0-5.7,0.4-9.3-6.9l-0.2-0.4l-0.4,0.1
	c0,0-4.2,1.4-6.5-0.7c-0.1-0.1-0.3-0.3-0.4-0.5H22l0,0h-2.2v0h-0.2l0.1,0.3h-0.3c0,0.1,0,0.1,0.1,0.2c0.5,1.1,2.5,4.7,8.9,3.9
	c0.8,1.3,4.5,6.7,11,6.7h0c0.2,0,5.7,0.5,12.7-5.2c1.8,0.9,11.2,5.6,19.4,5.6c0.8,0,1.5,0,2.2-0.1c0.2,0,13.2,0.1,18.7-12.5
	c0-0.1,3.4-6.9-1.5-12.3c1.1-1.1,4.5-4.7,4.2-9.6C95,130.6,92.3,127,87.4,123.7L87.4,123.7z"/>
<path class="st0" d="M19.7,157.5h-0.3l0,0.1c0,0,0,0.1,0.1,0.2h0.3L19.7,157.5z"/>
<path class="st0" d="M86.9,123.3v0.4l0.3,0.2v-0.4c0,0,0,0,0,0L86.9,123.3z"/>
<path class="st0" d="M21.8,179.1c-3.2,0-5.3,1.5-5.3,4c0,2.5,2,4,5.3,4c3.2,0,5.3-1.5,5.3-4S25,179.1,21.8,179.1z M21.8,184.9
	c-1.5,0-3.2-0.3-3.2-1.9c0-1.5,1.7-1.9,3.2-1.9c1.5,0,3.2,0.3,3.2,1.9C25,184.6,23.3,184.9,21.8,184.9z"/>
<rect x="171.4" y="191.8" class="st3" width="2.5" height="9.5"/>
<path class="st3" d="M172.7,190.7c-0.8,0-1.5-0.4-1.5-1.1c0-0.6,0.6-1.1,1.5-1.1s1.5,0.5,1.5,1.1
	C174.2,190.3,173.5,190.7,172.7,190.7z"/>
<path class="st3" d="M106.5,188.4h2.6v12.8h-2.6V188.4z"/>
<path class="st3" d="M111.7,191.8h2.5v1.1c0.7-0.9,1.7-1.4,2.9-1.4c2.1,0,3.1,1.1,3.1,3.3v6.5h-2.5v-5.7c0-1.3-0.4-1.9-1.5-1.9
	c-1.2,0-1.9,0.7-1.9,2v5.6h-2.5L111.7,191.8L111.7,191.8z"/>
<path class="st3" d="M125.1,201.4c-2.1,0-2.5-0.7-2.5-2.7v-5.1h-1.2v-1.8h1.2v-2.6h2.5v2.6h1.5v1.8h-1.5v5.2c0,0.5,0.2,0.6,0.8,0.6
	h0.6v1.9C125.8,201.4,125.4,201.4,125.1,201.4L125.1,201.4z"/>
<path class="st3" d="M130.1,195.5c0.1-1.3,0.8-2,1.9-2c1.2,0,1.8,0.7,1.9,2H130.1z M133.8,198.4c-0.3,0.7-0.9,1.1-1.7,1.1
	c-1.2,0-1.9-0.8-2-2.2h6.3c0-0.2,0-0.4,0-0.7c0-3.3-1.7-5.1-4.5-5.1c-2.7,0-4.4,1.9-4.4,5c0,3.2,1.8,5.1,4.5,5.1
	c2.2,0,3.9-1.2,4.4-3.2L133.8,198.4z"/>
<path class="st3" d="M138.2,191.8h2.4v1.6c0.7-1.3,1.5-1.9,2.7-1.9c0.1,0,0.2,0,0.4,0v2.6h-0.8c-1.4,0-2.1,0.7-2.1,2.1v5h-2.5V191.8
	z"/>
<path class="st3" d="M145,191.8h2.5v1.1c0.7-0.9,1.7-1.4,2.9-1.4c2.1,0,3.1,1.1,3.1,3.3v6.5H151v-5.7c0-1.3-0.4-1.9-1.5-1.9
	c-1.2,0-1.9,0.7-1.9,2v5.6H145L145,191.8z"/>
<path class="st3" d="M161.1,196.6v0.9c0,1.3-0.8,2.2-2.2,2.2c-0.8,0-1.2-0.4-1.2-1.1c0-0.7,0.4-1,1.2-1.3
	C159.3,197.1,160.1,197.1,161.1,196.6z M161.1,200.1c0,0.4,0.1,0.8,0.3,1.2h2.6v-0.4c-0.4-0.2-0.5-0.6-0.5-1.3v-5.4
	c0-1.7-1.4-2.7-4.1-2.7c-2.4,0-3.9,1.2-3.9,3.1v0.2h2.4v-0.1c0-0.7,0.6-1.2,1.6-1.2c1.1,0,1.6,0.3,1.6,1.1c0,0.9-0.7,0.8-2.6,1.1
	c-2.2,0.3-3.2,1.2-3.2,3c0,1.9,1.1,3,2.9,3C159.4,201.6,160.5,201.1,161.1,200.1L161.1,200.1z"/>
<path class="st3" d="M168.5,201.4c-2.1,0-2.5-0.7-2.5-2.7v-5.1h-1.2v-1.8h1.2v-2.6h2.5v2.6h1.5v1.8h-1.5v5.2c0,0.5,0.2,0.6,0.8,0.6
	h0.6v1.9C169.2,201.4,168.7,201.4,168.5,201.4L168.5,201.4z"/>
<path class="st3" d="M178.3,196.5c0-1.9,0.8-2.9,2.2-2.9c1.4,0,2.2,1,2.2,2.9c0,1.9-0.8,2.9-2.2,2.9
	C179.1,199.5,178.3,198.4,178.3,196.5z M175.7,196.5c0,3.2,1.8,5.1,4.8,5.1s4.8-1.9,4.8-5.1c0-3.2-1.8-5.1-4.8-5.1
	S175.7,193.4,175.7,196.5z"/>
<path class="st3" d="M187.1,191.8h2.5v1.1c0.7-0.9,1.7-1.4,2.9-1.4c2.1,0,3.1,1.1,3.1,3.3v6.5H193v-5.7c0-1.3-0.4-1.9-1.5-1.9
	c-1.2,0-1.9,0.7-1.9,2v5.6h-2.5V191.8z"/>
<path class="st3" d="M203.1,196.6v0.9c0,1.3-0.8,2.2-2.2,2.2c-0.8,0-1.2-0.4-1.2-1.1c0-0.7,0.4-1,1.2-1.3
	C201.3,197.1,202.1,197.1,203.1,196.6z M203.1,200.1c0,0.4,0.1,0.8,0.3,1.2h2.6v-0.4c-0.4-0.2-0.5-0.6-0.5-1.3v-5.4
	c0-1.7-1.4-2.7-4.1-2.7c-2.4,0-3.9,1.2-3.9,3.1v0.2h2.4v-0.1c0-0.7,0.6-1.2,1.6-1.2c1.1,0,1.6,0.3,1.6,1.1c0,0.9-0.7,0.8-2.6,1.1
	c-2.2,0.3-3.2,1.2-3.2,3c0,1.9,1.1,3,2.9,3C201.5,201.6,202.5,201.1,203.1,200.1L203.1,200.1z"/>
<path class="st3" d="M207.8,188.4h2.5v12.8h-2.5V188.4z"/>
<path class="st3" d="M231.1,220.5c-3.8,0-6-2.5-6-6.8c0-4.4,2.2-6.8,6.2-6.8c3.3,0,5.2,1.7,5.4,4.6h-2.6c-0.2-1.4-1.2-2.2-2.8-2.2
	c-2.3,0-3.5,1.5-3.5,4.4c0,2.8,1.3,4.4,3.4,4.4c1.6,0,2.6-0.8,2.9-2.4h2.6C236.6,218.6,234.4,220.5,231.1,220.5L231.1,220.5z"/>
<path class="st3" d="M240.7,215.4c0-1.9,0.8-2.9,2.2-2.9c1.4,0,2.2,1,2.2,2.9c0,1.9-0.8,2.9-2.2,2.9
	C241.5,218.3,240.7,217.2,240.7,215.4z M238.1,215.4c0,3.2,1.8,5.1,4.8,5.1s4.8-1.9,4.8-5.1c0-3.2-1.8-5.1-4.8-5.1
	S238.1,212.2,238.1,215.4z"/>
<path class="st3" d="M249.4,210.6h2.5v1.1c0.7-0.9,1.7-1.4,2.9-1.4c2.1,0,3.1,1.1,3.1,3.3v6.5h-2.5v-5.7c0-1.3-0.4-1.9-1.5-1.9
	c-1.2,0-1.9,0.7-1.9,2v5.6h-2.5V210.6z"/>
<path class="st3" d="M262.7,220.2c-2.1,0-2.5-0.7-2.5-2.7v-5.1h-1.2v-1.8h1.2V208h2.5v2.6h1.5v1.8h-1.5v5.2c0,0.5,0.2,0.6,0.8,0.6
	h0.6v1.9C263.4,220.2,262.9,220.2,262.7,220.2L262.7,220.2z"/>
<path class="st3" d="M267.7,214.4c0.1-1.3,0.8-2,1.8-2c1.2,0,1.8,0.7,1.9,2H267.7z M271.4,217.2c-0.3,0.7-0.9,1.1-1.7,1.1
	c-1.2,0-1.9-0.8-1.9-2.2h6.3c0-0.2,0-0.4,0-0.7c0-3.3-1.6-5.1-4.5-5.1c-2.7,0-4.4,1.9-4.4,5c0,3.2,1.8,5.1,4.4,5.1
	c2.2,0,3.8-1.2,4.4-3.2H271.4z"/>
<path class="st3" d="M277.6,217c0,1,0.7,1.4,2,1.4c1,0,1.5-0.4,1.5-0.9c0-0.8-0.8-0.8-2.5-1.2c-2.2-0.6-3.3-1.2-3.3-2.9
	c0-1.9,1.5-3.2,3.9-3.2c2.5,0,4,1.2,4.1,3.2h-2.4c0-0.8-0.6-1.3-1.6-1.3c-1,0-1.4,0.3-1.4,0.9c0,0.7,0.8,0.7,2.6,1.2
	c2.2,0.5,3.2,1.1,3.2,2.8c0,2.1-1.5,3.3-4.4,3.3c-2.6,0-4.1-1.3-4.1-3.3V217L277.6,217L277.6,217z"/>
<path class="st3" d="M288.1,220.2c-2.1,0-2.5-0.7-2.5-2.7v-5.1h-1.2v-1.8h1.2V208h2.5v2.6h1.5v1.8H288v5.2c0,0.5,0.2,0.6,0.8,0.6
	h0.6v1.9C288.8,220.2,288.3,220.2,288.1,220.2L288.1,220.2z"/>
<path class="st3" d="M222,201.6c-3.7,0-5.9-2.5-5.9-6.8c0-4.4,2.2-6.8,6.1-6.8c3.2,0,5.1,1.7,5.3,4.6H225c-0.2-1.4-1.2-2.2-2.8-2.2
	c-2.3,0-3.5,1.5-3.5,4.4c0,2.8,1.2,4.4,3.4,4.4c1.6,0,2.6-0.8,2.9-2.4h2.5C227.4,199.8,225.2,201.6,222,201.6L222,201.6z"/>
<path class="st3" d="M231.4,196.5c0-1.9,0.8-2.9,2.2-2.9c1.4,0,2.2,1,2.2,2.9c0,1.9-0.8,2.9-2.2,2.9
	C232.3,199.5,231.4,198.4,231.4,196.5z M228.9,196.5c0,3.2,1.8,5.1,4.7,5.1c2.9,0,4.7-1.9,4.7-5.1c0-3.2-1.8-5.1-4.7-5.1
	C230.7,191.5,228.9,193.4,228.9,196.5z"/>
<path class="st3" d="M240.1,188.4h2.5v12.8h-2.5V188.4z"/>
<path class="st3" d="M244.9,188.4h2.5v12.8h-2.5V188.4z"/>
<path class="st3" d="M251.7,195.5c0.1-1.3,0.7-2,1.8-2c1.1,0,1.8,0.7,1.8,2H251.7z M255.3,198.4c-0.3,0.7-0.9,1.1-1.7,1.1
	c-1.2,0-1.8-0.8-1.9-2.2h6.2c0-0.2,0-0.4,0-0.7c0-3.3-1.6-5.1-4.4-5.1c-2.7,0-4.3,1.9-4.3,5c0,3.2,1.7,5.1,4.4,5.1
	c2.2,0,3.8-1.2,4.3-3.2L255.3,198.4z"/>
<path class="st3" d="M261.5,196.4c0-1.8,0.8-2.7,2-2.7c1.3,0,2,1,2,2.7c0,1.8-0.7,2.8-2,2.8C262.3,199.2,261.5,198.2,261.5,196.4z
	 M259.3,202.2c0.1,1.9,1.6,3,4.1,3c1.5,0,2.7-0.3,3.4-0.9c1-0.8,1.2-1.9,1.2-3.6v-8.8h-2.4v1.1c-0.6-1-1.4-1.5-2.7-1.5
	c-2.4,0-3.9,1.9-3.9,5c0,2.9,1.6,4.8,4,4.8c1.2,0,2.1-0.4,2.6-1.3v0.8c0,1.7-0.4,2.4-2.1,2.4c-0.8,0-1.3-0.3-1.5-0.9L259.3,202.2
	L259.3,202.2z"/>
<path class="st3" d="M280.1,196.6v0.9c0,1.3-0.8,2.2-2.2,2.2c-0.7,0-1.2-0.4-1.2-1.1c0-0.7,0.4-1,1.2-1.3
	C278.4,197.1,279.2,197.1,280.1,196.6z M280.2,200.1c0,0.4,0.1,0.8,0.3,1.2h2.6v-0.4c-0.4-0.2-0.5-0.6-0.5-1.3v-5.4
	c0-1.7-1.4-2.7-4-2.7c-2.4,0-3.8,1.2-3.8,3.1v0.2h2.3v-0.1c0-0.7,0.5-1.2,1.6-1.2c1.1,0,1.5,0.3,1.5,1.1c0,0.9-0.7,0.8-2.6,1.1
	c-2.2,0.3-3.1,1.2-3.1,3c0,1.9,1,3,2.8,3C278.5,201.6,279.6,201.1,280.2,200.1L280.2,200.1z"/>
<path class="st3" d="M287.4,201.4c-2,0-2.5-0.7-2.5-2.7v-5.1h-1.2v-1.8h1.2v-2.6h2.5v2.6h1.4v1.8h-1.4v5.2c0,0.5,0.2,0.6,0.8,0.6
	h0.6v1.9C288.1,201.4,287.6,201.4,287.4,201.4L287.4,201.4z"/>
<path class="st3" d="M292.3,195.5c0.1-1.3,0.7-2,1.8-2c1.1,0,1.8,0.7,1.8,2H292.3z M295.9,198.4c-0.3,0.7-0.9,1.1-1.7,1.1
	c-1.2,0-1.8-0.8-1.9-2.2h6.2c0-0.2,0-0.4,0-0.7c0-3.3-1.6-5.1-4.4-5.1c-2.7,0-4.3,1.9-4.3,5c0,3.2,1.7,5.1,4.4,5.1
	c2.2,0,3.8-1.2,4.3-3.2L295.9,198.4z"/>
<path class="st3" d="M271.4,190.7c-0.8,0-1.5-0.4-1.5-1.1c0-0.6,0.6-1.1,1.5-1.1s1.5,0.5,1.5,1.1
	C272.9,190.3,272.3,190.7,271.4,190.7z"/>
<rect x="270.2" y="191.8" class="st3" width="2.5" height="9.5"/>
<path class="st3" d="M109.1,213.2v-3.7h2.7c1.2,0,1.8,0.6,1.8,1.9c0,1.3-0.6,1.9-2,1.9L109.1,213.2L109.1,213.2z M109.1,215.5h3.2
	c2.5,0,3.9-1.5,3.9-4.1c0-2.7-1.4-4.1-4.1-4.1h-5.7v12.8h2.6L109.1,215.5L109.1,215.5z"/>
<path class="st3" d="M118.1,210.6h2.3v1.6c0.7-1.3,1.5-1.9,2.7-1.9c0.1,0,0.2,0,0.4,0v2.6h-0.8c-1.4,0-2.1,0.7-2.1,2.1v5h-2.5V210.6
	z"/>
<path class="st3" d="M127,215.4c0-1.9,0.8-2.9,2.2-2.9c1.4,0,2.2,1,2.2,2.9c0,1.9-0.8,2.9-2.2,2.9C127.8,218.3,127,217.2,127,215.4z
	 M124.4,215.4c0,3.2,1.8,5.1,4.8,5.1s4.8-1.9,4.8-5.1c0-3.2-1.8-5.1-4.8-5.1C126.2,210.3,124.4,212.2,124.4,215.4z"/>
<path class="st3" d="M137.7,215.2c0-1.8,0.8-2.7,2-2.7c1.3,0,2.1,1,2.1,2.7c0,1.8-0.7,2.8-2,2.8C138.4,218,137.7,217,137.7,215.2
	L137.7,215.2z M135.4,221c0.1,1.9,1.6,3,4.1,3c1.6,0,2.7-0.3,3.5-0.9c1-0.8,1.2-1.9,1.2-3.6v-8.8h-2.4v1.1c-0.6-1-1.4-1.5-2.7-1.5
	c-2.4,0-4,1.9-4,5c0,2.9,1.6,4.8,4,4.8c1.3,0,2.1-0.4,2.6-1.3v0.8c0,1.7-0.4,2.4-2.1,2.4c-0.9,0-1.3-0.3-1.5-0.9H135.4z"/>
<path class="st3" d="M146.4,210.6h2.3v1.6c0.7-1.3,1.5-1.9,2.7-1.9c0.1,0,0.2,0,0.4,0v2.6H151c-1.4,0-2.1,0.7-2.1,2.1v5h-2.5
	L146.4,210.6L146.4,210.6z"/>
<path class="st3" d="M158.6,215.4v0.9c0,1.3-0.8,2.2-2.2,2.2c-0.8,0-1.2-0.4-1.2-1.1c0-0.7,0.4-1,1.2-1.3
	C156.8,215.9,157.6,215.9,158.6,215.4z M158.6,218.9c0,0.4,0.1,0.8,0.3,1.2h2.6v-0.4c-0.4-0.2-0.5-0.6-0.5-1.3V213
	c0-1.7-1.4-2.7-4.1-2.7c-2.4,0-3.8,1.2-3.8,3.1v0.2h2.4v-0.1c0-0.7,0.5-1.2,1.6-1.2c1.1,0,1.5,0.3,1.5,1.1c0,0.9-0.7,0.8-2.6,1.1
	c-2.2,0.3-3.2,1.2-3.2,3c0,1.9,1,3,2.8,3C156.9,220.4,158,219.9,158.6,218.9L158.6,218.9z"/>
<path class="st3" d="M163.2,210.6h2.4v1.1c0.7-0.9,1.6-1.3,2.6-1.3c1.2,0,2,0.4,2.6,1.4c0.7-0.9,1.6-1.4,2.7-1.4
	c1.9,0,3.1,1.2,3.1,3.1v6.6h-2.5V214c0-0.9-0.5-1.4-1.4-1.4c-1,0-1.6,0.7-1.6,1.8v5.7h-2.5V214c0-0.9-0.5-1.5-1.4-1.5
	c-1,0-1.6,0.7-1.6,1.8v5.7h-2.5V210.6z"/>
<path class="st3" d="M178.7,210.6h2.4v1.1c0.7-0.9,1.6-1.3,2.6-1.3c1.2,0,2,0.4,2.6,1.4c0.7-0.9,1.6-1.4,2.7-1.4
	c1.9,0,3.1,1.2,3.1,3.1v6.6h-2.5V214c0-0.9-0.5-1.4-1.4-1.4c-1,0-1.6,0.7-1.6,1.8v5.7h-2.5V214c0-0.9-0.5-1.5-1.4-1.5
	c-1,0-1.6,0.7-1.6,1.8v5.7h-2.5L178.7,210.6L178.7,210.6z"/>
<path class="st3" d="M199,210.6h2.5v1.1c0.7-0.9,1.7-1.4,2.8-1.4c2.1,0,3.1,1.1,3.1,3.3v6.5h-2.5v-5.7c0-1.3-0.4-1.9-1.4-1.9
	c-1.2,0-1.9,0.7-1.9,2v5.6H199V210.6z"/>
<path class="st3" d="M211.6,215.2c0-1.8,0.8-2.7,2-2.7c1.3,0,2.1,1,2.1,2.7c0,1.8-0.7,2.8-2,2.8C212.4,218,211.6,217,211.6,215.2
	L211.6,215.2z M209.4,221c0.1,1.9,1.6,3,4.1,3c1.6,0,2.7-0.3,3.4-0.9c1-0.8,1.2-1.9,1.2-3.6v-8.8h-2.4v1.1c-0.6-1-1.4-1.5-2.7-1.5
	c-2.4,0-4,1.9-4,5c0,2.9,1.6,4.8,4,4.8c1.3,0,2.1-0.4,2.6-1.3v0.8c0,1.7-0.4,2.4-2.1,2.4c-0.8,0-1.3-0.3-1.5-0.9H209.4z"/>
<path class="st3" d="M195.5,209.5c-0.8,0-1.5-0.4-1.5-1.1c0-0.6,0.6-1.1,1.5-1.1s1.5,0.5,1.5,1.1C197,209.1,196.4,209.5,195.5,209.5
	z"/>
<rect x="194.3" y="210.6" class="st3" width="2.5" height="9.5"/>
<path class="st0" d="M8,193h4.7v26.2H8V193z"/>
<path class="st0" d="M37,194.2c2,1.4,3.1,3.9,3.5,7.5H36c-0.3-1.6-0.9-3-1.9-4c-1-1.1-2.6-1.6-4.7-1.6c-3,0-5.1,1.4-6.4,4.1
	c-0.8,1.8-1.2,4-1.2,6.6c0,2.6,0.6,4.9,1.8,6.7s3,2.7,5.5,2.7c1.9,0,3.5-0.6,4.6-1.7c1.1-1.1,1.9-2.6,2.3-4.6h4.5
	c-0.5,3.5-1.8,6-3.9,7.7c-2.1,1.6-4.7,2.4-8,2.4c-3.6,0-6.5-1.3-8.7-3.8s-3.2-5.7-3.2-9.4c0-4.6,1.2-8.2,3.5-10.8
	c2.4-2.6,5.4-3.9,9-3.9C32.5,192.1,35,192.8,37,194.2L37,194.2z"/>
<path class="st0" d="M44.8,193h4.6v3.5c0.9-1.2,2-2.1,3.1-2.8c1.6-1,3.4-1.5,5.6-1.5c3.2,0,5.8,1.1,8,3.4c2.2,2.3,3.3,5.6,3.3,9.8
	c0,5.7-1.6,9.8-4.8,12.3c-2,1.6-4.4,2.3-7,2.3c-2.1,0-3.9-0.4-5.3-1.3c-0.8-0.5-1.8-1.3-2.8-2.5v13.5h-4.7V193z M62.3,213.6
	c1.4-1.7,2.2-4.3,2.2-7.8c0-2.1-0.3-3.9-1-5.4c-1.2-2.9-3.4-4.4-6.7-4.4c-3.2,0-5.5,1.5-6.7,4.6c-0.6,1.6-1,3.7-1,6.2
	c0,2,0.3,3.8,1,5.2c1.2,2.7,3.4,4.1,6.7,4.1C59.1,216.2,60.9,215.3,62.3,213.6L62.3,213.6z"/>
<path class="st0" d="M93,194.2c2,1.4,3.1,3.9,3.5,7.5H92c-0.3-1.6-0.9-3-1.9-4c-1-1.1-2.6-1.6-4.7-1.6c-3,0-5.1,1.4-6.4,4.1
	c-0.8,1.8-1.2,4-1.2,6.6c0,2.6,0.6,4.9,1.8,6.7s3,2.7,5.5,2.7c1.9,0,3.5-0.6,4.6-1.7c1.1-1.1,1.9-2.6,2.3-4.6h4.5
	c-0.5,3.5-1.8,6-3.9,7.7c-2.1,1.6-4.7,2.4-8,2.4c-3.6,0-6.5-1.3-8.7-3.8s-3.2-5.7-3.2-9.4c0-4.6,1.2-8.2,3.6-10.8
	c2.4-2.6,5.4-3.9,9-3.9C88.5,192.1,91.1,192.8,93,194.2L93,194.2z"/>
<path class="st0" d="M10.3,188.5c-2.3,0-3.9-1.2-3.9-2.8c0-1.7,1.7-3,3.9-3s3.9,1.3,3.9,3C14.2,187.3,12.6,188.5,10.3,188.5z"/>
<path class="st0" d="M19.9,157.4h-0.3l0,0.1c0,0,0,0.1,0.1,0.2H20L19.9,157.4z"/>
<path class="st0" d="M87.1,123.3v0.4l0.3,0.2v-0.4c0,0,0,0,0,0L87.1,123.3z"/>
</svg>
